<svg width="212" height="35" viewBox="0 0 212 35" fill="none" xmlns="http://www.w3.org/2000/svg">
<path d="M16.5489 2.92705C16.8483 2.00574 18.1517 2.00574 18.4511 2.92705L21.2045 11.4012C21.3384 11.8132 21.7223 12.0922 22.1555 12.0922L31.0658 12.0922C32.0345 12.0922 32.4373 13.3318 31.6536 13.9012L24.445 19.1385C24.0945 19.3932 23.9479 19.8446 24.0818 20.2566L26.8352 28.7308C27.1345 29.6521 26.0801 30.4182 25.2963 29.8488L18.0878 24.6115C17.7373 24.3568 17.2627 24.3568 16.9122 24.6115L9.70365 29.8488C8.91994 30.4182 7.86546 29.6521 8.16481 28.7307L10.9182 20.2566C11.0521 19.8446 10.9055 19.3932 10.555 19.1385L3.34641 13.9012C2.56269 13.3318 2.96547 12.0922 3.93419 12.0922L12.8445 12.0922C13.2777 12.0922 13.6616 11.8132 13.7955 11.4012L16.5489 2.92705Z" fill="#FED66F"/>
<path d="M60.7599 2.92705C61.0592 2.00574 62.3626 2.00574 62.662 2.92705L65.4154 11.4012C65.5493 11.8132 65.9332 12.0922 66.3665 12.0922L75.2767 12.0922C76.2455 12.0922 76.6482 13.3318 75.8645 13.9012L68.656 19.1385C68.3055 19.3932 68.1588 19.8446 68.2927 20.2566L71.0461 28.7308C71.3455 29.6521 70.291 30.4182 69.5073 29.8488L62.2987 24.6115C61.9482 24.3568 61.4736 24.3568 61.1232 24.6115L53.9146 29.8488C53.1309 30.4182 52.0764 29.6521 52.3758 28.7307L55.1292 20.2566C55.2631 19.8446 55.1164 19.3932 54.7659 19.1385L47.5573 13.9012C46.7736 13.3318 47.1764 12.0922 48.1451 12.0922L57.0554 12.0922C57.4886 12.0922 57.8726 11.8132 58.0065 11.4012L60.7599 2.92705Z" fill="#FED66F"/>
<path d="M104.97 2.92705C105.269 2.00574 106.573 2.00574 106.872 2.92705L109.625 11.4012C109.759 11.8132 110.143 12.0922 110.576 12.0922L119.487 12.0922C120.455 12.0922 120.858 13.3318 120.074 13.9012L112.866 19.1385C112.515 19.3932 112.369 19.8446 112.503 20.2566L115.256 28.7308C115.555 29.6521 114.501 30.4182 113.717 29.8488L106.509 24.6115C106.158 24.3568 105.684 24.3568 105.333 24.6115L98.1246 29.8488C97.3408 30.4182 96.2864 29.6521 96.5857 28.7307L99.3391 20.2566C99.473 19.8446 99.3264 19.3932 98.9759 19.1385L91.7673 13.9012C90.9836 13.3318 91.3864 12.0922 92.3551 12.0922L101.265 12.0922C101.699 12.0922 102.083 11.8132 102.216 11.4012L104.97 2.92705Z" fill="#FED66F"/>
<path d="M149.181 2.92705C149.48 2.00574 150.784 2.00574 151.083 2.92705L153.836 11.4012C153.97 11.8132 154.354 12.0922 154.787 12.0922L163.698 12.0922C164.666 12.0922 165.069 13.3318 164.285 13.9012L157.077 19.1385C156.726 19.3932 156.58 19.8446 156.714 20.2566L159.467 28.7308C159.766 29.6521 158.712 30.4182 157.928 29.8488L150.72 24.6115C150.369 24.3568 149.895 24.3568 149.544 24.6115L142.335 29.8488C141.552 30.4182 140.497 29.6521 140.797 28.7307L143.55 20.2566C143.684 19.8446 143.537 19.3932 143.187 19.1385L135.978 13.9012C135.195 13.3318 135.597 12.0922 136.566 12.0922L145.476 12.0922C145.91 12.0922 146.293 11.8132 146.427 11.4012L149.181 2.92705Z" fill="#FED66F"/>
<path d="M193.391 2.92705C193.69 2.00574 194.994 2.00574 195.293 2.92705L198.046 11.4012C198.18 11.8132 198.564 12.0922 198.997 12.0922L207.908 12.0922C208.876 12.0922 209.279 13.3318 208.495 13.9012L201.287 19.1385C200.936 19.3932 200.79 19.8446 200.924 20.2566L203.677 28.7308C203.976 29.6521 202.922 30.4182 202.138 29.8488L194.93 24.6115C194.579 24.3568 194.104 24.3568 193.754 24.6115L186.545 29.8488C185.762 30.4182 184.707 29.6521 185.007 28.7307L187.76 20.2566C187.894 19.8446 187.747 19.3932 187.397 19.1385L180.188 13.9012C179.404 13.3318 179.807 12.0922 180.776 12.0922L189.686 12.0922C190.119 12.0922 190.503 11.8132 190.637 11.4012L193.391 2.92705Z" fill="#FED66F"/>
</svg>
