<svg width="34" height="35" viewBox="0 0 34 35" fill="none" xmlns="http://www.w3.org/2000/svg">
<path d="M25.8643 0.767674C36.3013 2.1112 33.2381 17.2349 32.9478 24.5656C32.7864 28.5964 32.0665 31.7135 27.9067 33.1108C22.4355 34.9489 14.3739 34.3361 8.79529 33.5193C5.06536 32.9818 2.14169 31.8639 1.10983 27.9944C-0.524019 21.8783 -0.0617938 13.6016 0.647608 7.36734C0.669183 7.24914 0.701311 7.16308 0.755015 7.0878C0.851634 -2.24183 20.436 0.0690597 25.8643 0.767674Z" fill="#91E7DE"/>
<path d="M30.1969 6.45398C30.2185 3.88489 27.0153 3.06808 25.2953 4.64823C24.8331 5.07809 24.6181 5.73379 24.5859 6.44319C24.7578 7.35685 25.3061 8.25973 26.0155 8.77566C27.6817 9.94728 30.1753 8.38871 30.1969 6.45398Z" fill="white" fill-opacity="0.44"/>
<path d="M25.4347 11.4521C21.7587 5.88427 13.4605 5.33598 8.99979 10.2697C5.95792 13.634 5.74288 19.2342 8.03243 23.2113C8.16141 23.2542 8.2796 23.3295 8.38724 23.4584C12.1064 27.6074 18.5126 29.1123 23.1132 25.3503C27.2191 21.9859 28.4229 15.9772 25.4347 11.4521Z" fill="white" fill-opacity="0.44"/>
<path d="M10.7836 19.0839C12.0842 22.7386 16.7062 25.6407 20.393 23.3835C27.8418 18.826 19.0924 6.44346 12.9547 11.936C10.7836 13.215 9.93439 16.6868 10.7836 19.0839Z" fill="#91E7DE"/>
</svg>
