<svg width="133" height="133" viewBox="0 0 133 133" fill="none" xmlns="http://www.w3.org/2000/svg">
<g filter="url(#filter0_d_101_15969)">
<rect x="16" y="12" width="101" height="101" rx="21" fill="white"/>
</g>
<path d="M56.2139 70.2721V96.0702H56.214C56.214 98.0342 57.8062 99.6264 59.7703 99.6264C61.7344 99.6264 63.3266 98.0342 63.3266 96.0702V69.0967L56.2139 70.2721Z" fill="#6DEB4D" fill-opacity="0.4"/>
<path d="M71.9095 57.4718L67.7636 56.1631L68.9578 63.4027C69.3522 65.7942 67.8952 68.3423 64.8613 68.8426V96.0694C64.8613 98.0335 66.4536 99.6257 68.4176 99.6257C70.3817 99.6257 71.9739 98.0335 71.9739 96.0694C71.9738 93.4709 71.9095 60.0724 71.9095 57.4718Z" fill="#6DEB4D" fill-opacity="0.4"/>
<path d="M64.0944 37.2845C67.4867 37.2845 70.2367 34.5346 70.2367 31.1423C70.2367 27.75 67.4867 25 64.0944 25C60.7021 25 57.9521 27.75 57.9521 31.1423C57.9521 34.5346 60.7021 37.2845 64.0944 37.2845Z" fill="#6DEB4D" fill-opacity="0.4"/>
<path d="M65.7539 63.9326L63.9894 53.2355C63.8586 52.4423 63.1094 51.9054 62.3164 52.0362L57.5479 52.8229L57.5547 66.7604L64.5547 65.6058C65.3479 65.4749 65.8849 64.7257 65.7539 63.9326Z" fill="#6DEB4D" fill-opacity="0.4"/>
<path d="M56.1228 39.2422C52.2752 39.2422 49.1289 42.3726 49.1094 46.2204C49.0926 49.5636 49.0123 65.5563 49 67.9932C48.9917 69.63 50.312 70.9634 51.9487 70.9717C51.9536 70.9717 51.9589 70.9717 51.964 70.9717C53.5937 70.9717 54.9192 69.6545 54.9272 68.0229C54.9393 65.6022 55.02 49.535 55.0365 46.2501C55.0366 46.2502 55.0366 46.2502 55.0366 46.2501C55.0384 45.9259 55.3021 45.6643 55.6262 45.6652C55.9504 45.6662 56.2126 45.9292 56.2126 46.2533V49.7536L61.7914 48.8335C62.4689 48.7217 63.187 48.7555 63.8916 48.9623C64.4033 47.3629 65.5583 46.1476 66.9803 45.5107C67.263 44.4516 68.0217 41.611 68.6543 39.2422C63.6842 39.2422 63.3112 39.2422 56.1228 39.2422Z" fill="#6DEB4D" fill-opacity="0.4"/>
<path d="M83.3764 53.0243C82.8527 51.9164 79.5391 44.9069 78.9961 43.7579C77.9568 41.5594 75.953 39.9854 73.6365 39.4463L72.104 45.1845C72.7727 45.2676 73.3542 45.692 73.6374 46.2911L75.1174 49.4216C71.092 48.1508 71.5262 48.288 70.1905 47.8664C68.6298 47.3742 66.965 48.2397 66.4722 49.8005C65.9816 51.3546 66.8482 53.027 68.4062 53.5188L79.8051 57.1169C82.2661 57.8937 84.4798 55.3581 83.3764 53.0243Z" fill="#6DEB4D" fill-opacity="0.4"/>
<defs>
<filter id="filter0_d_101_15969" x="0" y="0" width="133" height="133" filterUnits="userSpaceOnUse" color-interpolation-filters="sRGB">
<feFlood flood-opacity="0" result="BackgroundImageFix"/>
<feColorMatrix in="SourceAlpha" type="matrix" values="0 0 0 0 0 0 0 0 0 0 0 0 0 0 0 0 0 0 127 0" result="hardAlpha"/>
<feOffset dy="4"/>
<feGaussianBlur stdDeviation="8"/>
<feComposite in2="hardAlpha" operator="out"/>
<feColorMatrix type="matrix" values="0 0 0 0 0 0 0 0 0 0 0 0 0 0 0 0 0 0 0.05 0"/>
<feBlend mode="normal" in2="BackgroundImageFix" result="effect1_dropShadow_101_15969"/>
<feBlend mode="normal" in="SourceGraphic" in2="effect1_dropShadow_101_15969" result="shape"/>
</filter>
</defs>
</svg>
