<svg width="30" height="45" viewBox="0 0 30 45" fill="none" xmlns="http://www.w3.org/2000/svg">
<path d="M29.4509 8.04916L21.9508 0.549015C21.9505 0.548664 21.9501 0.548488 21.9499 0.548136C21.9064 0.504806 21.8609 0.46376 21.8135 0.424824C21.7917 0.406982 21.7689 0.391513 21.7466 0.374814C21.7199 0.354863 21.6938 0.334208 21.6661 0.315663C21.6393 0.297821 21.6117 0.282352 21.5842 0.266004C21.5591 0.250975 21.5346 0.235242 21.5087 0.221355C21.4808 0.206414 21.4521 0.193757 21.4236 0.18031C21.3966 0.167565 21.37 0.154118 21.3424 0.142604C21.3148 0.131178 21.2865 0.121862 21.2583 0.111842C21.2287 0.101207 21.1995 0.0898692 21.1693 0.0807285C21.1412 0.072203 21.1125 0.0659627 21.0841 0.0588435C21.0533 0.0510211 21.0228 0.0424077 20.9914 0.0361674C20.9584 0.0296634 20.9252 0.0257083 20.8921 0.0209622C20.8648 0.0170949 20.8379 0.0118214 20.8101 0.00909679C20.687 -0.00303226 20.563 -0.00303226 20.44 0.00909679C20.4123 0.0118214 20.3854 0.017007 20.358 0.0209622C20.3248 0.0257083 20.2915 0.0295755 20.2587 0.0361674C20.2272 0.0424077 20.1968 0.0510211 20.1659 0.0588435C20.1375 0.0659627 20.1089 0.072203 20.0808 0.0807285C20.0505 0.0898692 20.0213 0.101207 19.9917 0.111842C19.9636 0.12195 19.9353 0.131178 19.9076 0.142604C19.8799 0.15403 19.8535 0.167565 19.8265 0.18031C19.798 0.193757 19.7693 0.206414 19.7413 0.221355C19.7155 0.235242 19.691 0.250975 19.6658 0.266004C19.6384 0.282352 19.6107 0.297821 19.584 0.315663C19.5562 0.334208 19.5302 0.354863 19.5035 0.374814C19.4812 0.391513 19.4583 0.406982 19.4366 0.424824C19.3891 0.46376 19.3435 0.504806 19.3002 0.548136C19.2998 0.548488 19.2995 0.548664 19.2992 0.549015L11.7992 8.04907C11.0669 8.7813 11.0669 9.96854 11.7992 10.7008C12.5314 11.433 13.7186 11.433 14.4509 10.7008L18.7501 6.40154V28.1252C18.7501 29.1607 19.5895 30.0002 20.6251 30.0002C21.6606 30.0002 22.5001 29.1607 22.5001 28.1252V6.40163L26.7993 10.7009C27.5315 11.4331 28.7188 11.4331 29.451 10.7009C30.1831 9.96854 30.1831 8.78139 29.4509 8.04916Z" fill="white"/>
<path d="M15.5493 34.2998L11.2501 38.599V16.8755C11.2501 15.8399 10.4106 15.0005 9.37507 15.0005C8.33953 15.0005 7.50008 15.8399 7.50008 16.8755V38.599L3.20086 34.2998C2.46863 33.5676 1.28139 33.5676 0.549169 34.2998C-0.183056 35.0321 -0.183056 36.2193 0.549169 36.9515L8.04923 44.4516C8.04958 44.4519 8.04993 44.4522 8.05028 44.4525C8.09361 44.4958 8.13923 44.5368 8.1866 44.5758C8.20831 44.5936 8.23125 44.6091 8.25358 44.6259C8.28021 44.6458 8.30631 44.6665 8.334 44.685C8.36072 44.7029 8.3884 44.7183 8.41582 44.7347C8.44096 44.7497 8.46548 44.7654 8.49132 44.7792C8.51927 44.7942 8.54801 44.8068 8.57658 44.8203C8.60347 44.833 8.63002 44.8465 8.65761 44.8579C8.6853 44.8693 8.7136 44.8786 8.74173 44.8887C8.77135 44.8993 8.80053 44.9106 8.83076 44.9198C8.85889 44.9283 8.88745 44.9345 8.91593 44.9417C8.94678 44.9495 8.97728 44.9581 9.00874 44.9643C9.0417 44.9708 9.07492 44.9747 9.10806 44.9795C9.13539 44.9833 9.16238 44.9886 9.19006 44.9913C9.31311 45.0034 9.43713 45.0034 9.56017 44.9913C9.58786 44.9886 9.61475 44.9834 9.64218 44.9795C9.67531 44.9747 9.70862 44.9708 9.7415 44.9642C9.77296 44.958 9.80337 44.9494 9.83422 44.9416C9.8627 44.9345 9.89126 44.9282 9.91939 44.9197C9.94962 44.9105 9.97889 44.8992 10.0084 44.8886C10.0365 44.8785 10.0648 44.8692 10.0925 44.8578C10.1201 44.8464 10.1466 44.8329 10.1735 44.8202C10.202 44.8067 10.2309 44.7941 10.2588 44.7791C10.2846 44.7653 10.3091 44.7495 10.3341 44.7346C10.3616 44.7182 10.3893 44.7027 10.4161 44.6848C10.4437 44.6663 10.4698 44.6457 10.4963 44.6259C10.5187 44.6091 10.5417 44.5935 10.5635 44.5757C10.6105 44.5371 10.6557 44.4963 10.6988 44.4533C10.6995 44.4527 10.7002 44.4521 10.7008 44.4515L18.2009 36.9514C18.9331 36.2192 18.9331 35.032 18.2009 34.2997C17.4687 33.5675 16.2816 33.5676 15.5493 34.2998Z" fill="white"/>
</svg>
