<svg width="133" height="133" viewBox="0 0 133 133" fill="none" xmlns="http://www.w3.org/2000/svg">
<g filter="url(#filter0_d_101_16371)">
<rect x="16" y="12" width="101" height="101" rx="21" fill="white"/>
</g>
<path d="M72.9688 60.3438C72.9688 63.9145 70.0708 66.8125 66.5 66.8125C62.9293 66.8125 60.0312 63.9145 60.0312 60.3438C60.0312 56.773 62.9293 53.875 66.5 53.875C70.0708 53.875 72.9688 56.773 72.9688 60.3438Z" fill="#DDB4BD"/>
<path d="M93.5394 45.25H82.5856C78.4672 45.25 75.125 48.5922 75.125 52.7106V66.8125C75.125 69.193 77.057 71.125 79.4375 71.125V97H96.6875V71.125C99.068 71.125 101 69.193 101 66.8125V52.7106C101 48.5922 97.6578 45.25 93.5394 45.25Z" fill="#DDB4BD"/>
<path d="M96.6875 36.625C96.6875 41.3903 92.8278 45.25 88.0625 45.25C83.2972 45.25 79.4375 41.3903 79.4375 36.625C79.4375 31.8597 83.2972 28 88.0625 28C92.8278 28 96.6875 31.8597 96.6875 36.625Z" fill="#DDB4BD"/>
<path d="M50.4144 49.5625H39.4606C35.3422 49.5625 32 52.9047 32 57.0231C32 61.1416 35.3422 64.4838 39.4606 64.4838C43.5791 64.4838 46.9213 61.1416 46.9213 57.0231C46.9213 52.9047 43.5791 49.5625 39.4606 49.5625C35.3422 49.5625 32 52.9047 32 57.0231V66.8125C32 69.193 33.932 71.125 36.3125 71.125L32 84.0625H36.3125V97H53.5625V84.0625H57.875L53.5625 71.125C55.943 71.125 57.875 69.193 57.875 66.8125V57.0231C57.875 52.9047 54.5328 49.5625 50.4144 49.5625Z" fill="#DDB4BD"/>
<path d="M53.5625 40.9375C53.5625 45.7028 49.7028 49.5625 44.9375 49.5625C40.1722 49.5625 36.3125 45.7028 36.3125 40.9375C36.3125 36.1722 40.1722 32.3125 44.9375 32.3125C49.7028 32.3125 53.5625 36.1722 53.5625 40.9375Z" fill="#DDB4BD"/>
<path d="M62.1875 84.0625V97H70.8125V84.0625C73.193 84.0625 75.125 82.1305 75.125 79.75V73.1088C75.125 69.6329 72.3046 66.8125 68.8287 66.8125H64.1713C60.6954 66.8125 57.875 69.6329 57.875 73.1088V79.75C57.875 82.1305 59.807 84.0625 62.1875 84.0625Z" fill="#DDB4BD"/>
<defs>
<filter id="filter0_d_101_16371" x="0" y="0" width="133" height="133" filterUnits="userSpaceOnUse" color-interpolation-filters="sRGB">
<feFlood flood-opacity="0" result="BackgroundImageFix"/>
<feColorMatrix in="SourceAlpha" type="matrix" values="0 0 0 0 0 0 0 0 0 0 0 0 0 0 0 0 0 0 127 0" result="hardAlpha"/>
<feOffset dy="4"/>
<feGaussianBlur stdDeviation="8"/>
<feComposite in2="hardAlpha" operator="out"/>
<feColorMatrix type="matrix" values="0 0 0 0 0 0 0 0 0 0 0 0 0 0 0 0 0 0 0.05 0"/>
<feBlend mode="normal" in2="BackgroundImageFix" result="effect1_dropShadow_101_16371"/>
<feBlend mode="normal" in="SourceGraphic" in2="effect1_dropShadow_101_16371" result="shape"/>
</filter>
</defs>
</svg>
