<svg width="133" height="133" viewBox="0 0 133 133" fill="none" xmlns="http://www.w3.org/2000/svg">
<g filter="url(#filter0_d_101_15932)">
<rect x="16" y="12" width="101" height="101" rx="21" fill="white"/>
</g>
<path d="M81.1085 40.3926H74.3539C73.6207 40.3926 73.0264 40.987 73.0264 41.7201C73.0264 42.4532 73.6209 43.0476 74.3539 43.0476H81.1085C81.8416 43.0476 82.436 42.4532 82.436 41.7201C82.436 40.987 81.8415 40.3926 81.1085 40.3926Z" fill="#C7DFE3"/>
<path d="M80.0679 31.3888C79.5494 30.8704 78.7091 30.8704 78.1904 31.3888L73.4142 36.165C72.8958 36.6834 72.8958 37.5241 73.4142 38.0424C73.9327 38.5608 74.7731 38.5609 75.2917 38.0424L80.0679 33.2662C80.5863 32.7478 80.5863 31.9072 80.0679 31.3888Z" fill="#C7DFE3"/>
<path d="M59.9121 68.7754V89.3877C59.9121 90.8762 61.1188 92.0828 62.6072 92.0828C64.0957 92.0828 65.3023 90.8762 65.3023 89.3877V68.7754H59.9121Z" fill="#C7DFE3"/>
<path d="M71.8042 64.2393C67.8398 65.8164 68.3004 65.6344 68.1676 65.6833C68.4812 67.256 67.6246 68.383 66.4629 68.6929V89.3878C66.4629 90.8763 67.6695 92.0829 69.158 92.0829C70.6464 92.0829 71.8531 90.8763 71.8531 89.3878C71.8531 89.2237 71.8042 64.4032 71.8042 64.2393Z" fill="#C7DFE3"/>
<path d="M65.9125 34.9854C63.2567 34.9854 61.1285 37.2074 61.2639 39.8795C61.3886 42.339 63.4222 44.2946 65.9125 44.2946C68.4832 44.2946 70.5672 42.2106 70.5672 39.6399C70.5672 37.0551 68.471 34.9854 65.9125 34.9854Z" fill="#C7DFE3"/>
<path d="M66.3925 66.2507L66.3231 65.902C64.9226 65.7323 63.6558 64.8249 63.0975 63.4217C62.3513 61.5463 63.1308 59.4426 64.8435 58.4805L64.1981 55.2436C64.1462 54.9832 63.9157 54.7939 63.6502 54.7939H56.6841C56.3311 54.7939 56.0671 55.1165 56.136 55.4619L58.3306 66.4694C58.3825 66.73 58.613 66.9191 58.8786 66.9191H65.8447C66.1966 66.9191 66.4617 66.5969 66.3925 66.2507Z" fill="#C7DFE3"/>
<path d="M77.2369 51.6132C77.2225 48.6972 74.8383 46.325 71.9222 46.325C69.9765 46.325 63.4591 46.325 61.5421 46.325L56.6241 45.7499L59.2714 42.5694C60.0548 41.6283 59.9392 40.2033 58.9819 39.4065C58.0285 38.613 56.6125 38.7425 55.819 39.6959L50.5197 46.0626C49.9925 46.696 49.8546 47.5674 50.1603 48.3328C50.4662 49.0981 51.1664 49.6344 51.9851 49.7302L59.9094 50.6567V52.9352H63.6437C64.7929 52.9352 65.7898 53.7532 66.0145 54.8801L66.5857 57.7452L71.8052 55.6688V51.6085C71.8052 51.3488 72.0157 51.1384 72.2754 51.1384C72.535 51.1384 72.7455 51.3489 72.7455 51.6085C72.7455 51.6177 72.7454 51.6269 72.7453 51.6361C72.7678 56.1242 72.7625 55.0578 72.7731 57.153L65.9616 59.8627C64.8091 60.3212 64.2466 61.6271 64.7051 62.7797C65.1635 63.932 66.469 64.4949 67.6221 64.0363L75.8568 60.7603C76.7153 60.4187 77.277 59.5862 77.2723 58.6622C77.2521 54.6458 77.2566 55.543 77.2369 51.6132Z" fill="#C7DFE3"/>
<defs>
<filter id="filter0_d_101_15932" x="0" y="0" width="133" height="133" filterUnits="userSpaceOnUse" color-interpolation-filters="sRGB">
<feFlood flood-opacity="0" result="BackgroundImageFix"/>
<feColorMatrix in="SourceAlpha" type="matrix" values="0 0 0 0 0 0 0 0 0 0 0 0 0 0 0 0 0 0 127 0" result="hardAlpha"/>
<feOffset dy="4"/>
<feGaussianBlur stdDeviation="8"/>
<feComposite in2="hardAlpha" operator="out"/>
<feColorMatrix type="matrix" values="0 0 0 0 0 0 0 0 0 0 0 0 0 0 0 0 0 0 0.05 0"/>
<feBlend mode="normal" in2="BackgroundImageFix" result="effect1_dropShadow_101_15932"/>
<feBlend mode="normal" in="SourceGraphic" in2="effect1_dropShadow_101_15932" result="shape"/>
</filter>
</defs>
</svg>
