<svg width="212" height="35" viewBox="0 0 212 35" fill="none" xmlns="http://www.w3.org/2000/svg">
<path d="M16.5489 2.92705C16.8483 2.00574 18.1517 2.00574 18.4511 2.92705L21.2045 11.4012C21.3384 11.8132 21.7223 12.0922 22.1555 12.0922L31.0658 12.0922C32.0345 12.0922 32.4373 13.3318 31.6536 13.9012L24.445 19.1385C24.0945 19.3932 23.9479 19.8446 24.0818 20.2566L26.8352 28.7308C27.1345 29.6521 26.0801 30.4182 25.2963 29.8488L18.0878 24.6115C17.7373 24.3568 17.2627 24.3568 16.9122 24.6115L9.70365 29.8488C8.91994 30.4182 7.86546 29.6521 8.16481 28.7307L10.9182 20.2566C11.0521 19.8446 10.9055 19.3932 10.555 19.1385L3.34641 13.9012C2.56269 13.3318 2.96547 12.0922 3.93419 12.0922L12.8445 12.0922C13.2777 12.0922 13.6616 11.8132 13.7955 11.4012L16.5489 2.92705Z" fill="#FED66F"/>
<path d="M60.7599 2.92705C61.0592 2.00574 62.3626 2.00574 62.662 2.92705L65.4154 11.4012C65.5493 11.8132 65.9332 12.0922 66.3665 12.0922L75.2767 12.0922C76.2455 12.0922 76.6482 13.3318 75.8645 13.9012L68.656 19.1385C68.3055 19.3932 68.1588 19.8446 68.2927 20.2566L71.0461 28.7308C71.3455 29.6521 70.291 30.4182 69.5073 29.8488L62.2987 24.6115C61.9482 24.3568 61.4736 24.3568 61.1232 24.6115L53.9146 29.8488C53.1309 30.4182 52.0764 29.6521 52.3758 28.7307L55.1292 20.2566C55.2631 19.8446 55.1164 19.3932 54.7659 19.1385L47.5573 13.9012C46.7736 13.3318 47.1764 12.0922 48.1451 12.0922L57.0554 12.0922C57.4886 12.0922 57.8726 11.8132 58.0065 11.4012L60.7599 2.92705Z" fill="#FED66F"/>
<path d="M104.971 2.92705C105.27 2.00574 106.574 2.00574 106.873 2.92705L109.626 11.4012C109.76 11.8132 110.144 12.0922 110.577 12.0922L119.488 12.0922C120.456 12.0922 120.859 13.3318 120.075 13.9012L112.867 19.1385C112.516 19.3932 112.37 19.8446 112.504 20.2566L115.257 28.7308C115.556 29.6521 114.502 30.4182 113.718 29.8488L106.51 24.6115C106.159 24.3568 105.685 24.3568 105.334 24.6115L98.1255 29.8488C97.3418 30.4182 96.2873 29.6521 96.5867 28.7307L99.3401 20.2566C99.474 19.8446 99.3273 19.3932 98.9768 19.1385L91.7683 13.9012C90.9846 13.3318 91.3873 12.0922 92.3561 12.0922L101.266 12.0922C101.7 12.0922 102.084 11.8132 102.217 11.4012L104.971 2.92705Z" fill="#FED66F"/>
<path d="M149.18 2.92705C149.479 2.00574 150.783 2.00574 151.082 2.92705L153.835 11.4012C153.969 11.8132 154.353 12.0922 154.786 12.0922L163.697 12.0922C164.665 12.0922 165.068 13.3318 164.284 13.9012L157.076 19.1385C156.725 19.3932 156.579 19.8446 156.713 20.2566L159.466 28.7308C159.765 29.6521 158.711 30.4182 157.927 29.8488L150.719 24.6115C150.368 24.3568 149.894 24.3568 149.543 24.6115L142.335 29.8488C141.551 30.4182 140.496 29.6521 140.796 28.7307L143.549 20.2566C143.683 19.8446 143.536 19.3932 143.186 19.1385L135.977 13.9012C135.194 13.3318 135.596 12.0922 136.565 12.0922L145.475 12.0922C145.909 12.0922 146.293 11.8132 146.426 11.4012L149.18 2.92705Z" fill="#FED66F"/>
<path d="M193.391 2.92705C193.69 2.00574 194.994 2.00574 195.293 2.92705L198.046 11.4012C198.18 11.8132 198.564 12.0922 198.997 12.0922L207.908 12.0922C208.876 12.0922 209.279 13.3318 208.495 13.9012L201.287 19.1385C200.936 19.3932 200.79 19.8446 200.924 20.2566L203.677 28.7308C203.976 29.6521 202.922 30.4182 202.138 29.8488L194.93 24.6115C194.579 24.3568 194.104 24.3568 193.754 24.6115L186.545 29.8488C185.762 30.4182 184.707 29.6521 185.007 28.7307L187.76 20.2566C187.894 19.8446 187.747 19.3932 187.397 19.1385L180.188 13.9012C179.404 13.3318 179.807 12.0922 180.776 12.0922L189.686 12.0922C190.119 12.0922 190.503 11.8132 190.637 11.4012L193.391 2.92705Z" fill="#FED66F"/>
</svg>
