<svg width="34" height="35" viewBox="0 0 34 35" fill="none" xmlns="http://www.w3.org/2000/svg">
<path d="M25.8643 0.767674C36.3013 2.1112 33.2381 17.2349 32.9478 24.5656C32.7864 28.5964 32.0665 31.7135 27.9067 33.1108C22.4355 34.9489 14.3739 34.3361 8.79529 33.5193C5.06536 32.9818 2.14169 31.8639 1.10983 27.9944C-0.524019 21.8783 -0.0617938 13.6016 0.647608 7.36734C0.669183 7.24914 0.701311 7.16308 0.755015 7.0878C0.851634 -2.24183 20.436 0.0690597 25.8643 0.767674Z" fill="#91E7DE"/>
<path d="M30.1969 6.45358C30.2185 3.88449 27.0153 3.06768 25.2953 4.64783C24.8331 5.0777 24.6181 5.73339 24.5859 6.44279C24.7578 7.35646 25.3061 8.25933 26.0155 8.77526C27.6817 9.94689 30.1753 8.38831 30.1969 6.45358Z" fill="white" fill-opacity="0.44"/>
<path d="M25.4347 11.4525C21.7587 5.88465 13.4605 5.33636 8.99979 10.27C5.95792 13.6344 5.74288 19.2345 8.03243 23.2116C8.16141 23.2546 8.2796 23.3298 8.38724 23.4588C12.1064 27.6078 18.5126 29.1127 23.1132 25.3506C27.2191 21.9863 28.4229 15.9776 25.4347 11.4525Z" fill="white" fill-opacity="0.44"/>
<path d="M10.7836 19.0837C12.0842 22.7383 16.7062 25.6404 20.393 23.3832C27.8418 18.8257 19.0924 6.44319 12.9547 11.9357C10.7836 13.2147 9.93439 16.6865 10.7836 19.0837Z" fill="#91E7DE"/>
</svg>
