<svg width="1113" height="80" viewBox="0 0 1113 80" fill="none" xmlns="http://www.w3.org/2000/svg">
<path d="M333.898 59.7079H339.415L348.959 35.5215H343.498L339.554 47.5675L335.397 35.5215H329.303L336.56 52.9919L333.898 59.7079ZM306.52 41.263V53.6608H300.955V35.5215H304.865L306.027 37.1061C307.541 35.8386 309.162 35.0984 311.028 35.0984C313.53 35.0984 315.431 35.8386 316.594 37.6708C318.284 36.12 320.081 35.0984 322.371 35.0984C326.668 35.0984 329.169 37.318 329.169 43.341V53.6608H323.604V43.9752C323.604 41.1926 322.476 40.3821 320.679 40.3821C319.623 40.3821 318.743 40.6636 317.756 41.2977C317.827 41.9319 317.862 42.6009 317.862 43.341V53.6608H312.297V43.9752C312.297 41.1926 311.169 40.3821 309.338 40.3821C308.316 40.3821 307.471 40.6288 306.52 41.263ZM287.11 42.8128H294.261C293.873 40.4533 292.605 39.3257 290.703 39.3257C289.082 39.3257 287.533 40.277 287.11 42.8128ZM291.091 54.0135C285.737 54.0135 281.439 51.3717 281.439 44.3974C281.439 37.881 285.596 35.0636 290.386 35.0636C296.162 35.0636 298.734 39.1137 298.734 45.4894H287.075C287.463 48.6238 289.4 49.5404 291.972 49.5404C294.459 49.5404 296.404 48.9267 297.909 47.914L297.154 52.3283C295.717 53.4382 293.993 54.0135 291.091 54.0135ZM270.368 49.3293C271.636 49.3293 272.587 49.1173 273.573 48.378V40.4881C272.693 39.959 271.813 39.7132 270.545 39.7132C267.832 39.7132 266.283 41.5445 266.283 44.6085C266.283 47.6031 267.868 49.3293 270.368 49.3293ZM274.665 52.323C273.221 53.415 271.566 54.0839 269.206 54.0839C264.239 54.0839 260.647 51.0199 260.647 44.7145C260.647 38.4448 264.768 35.0636 270.051 35.0636C271.284 35.0636 272.482 35.24 273.573 35.6622V27.9629H279.139V53.6608H275.616L274.665 52.323ZM237.066 42.9179V29.4744H242.843V42.8128C242.843 47.6031 244.991 48.5891 247.95 48.5891C251.156 48.5891 252.811 47.18 252.811 42.8128V29.4744H258.623V42.9179C258.623 50.8435 255.171 54.1543 247.669 54.1543C240.694 54.1543 237.066 51.3013 237.066 42.9179Z" fill="#8C8888"/>
<path d="M222.345 43.926C222.111 43.7381 221.848 43.6116 221.561 43.5573C219.867 45.2461 217.799 47.0248 215.964 48.2201C215.116 48.7831 214.051 49.0645 213.346 49.0645C211.722 49.0645 211.016 47.5165 210.805 45.0554C210.522 41.75 210.332 37.7908 210.332 31.6716C210.332 25.3956 208.907 21.1291 205.113 20.7942C204.953 20.78 204.79 20.7702 204.621 20.7702C202.292 20.7702 201.163 21.9655 199.68 24.9904C198.41 27.5921 196.434 31.3901 192.764 38.5639C189.588 44.7535 186.059 50.2394 183.023 54.0374C182.178 55.0902 181.51 55.8135 180.882 56.225C180.462 56.5011 180.06 56.6392 179.636 56.6392C178.438 56.6392 177.563 55.6282 177.271 53.274C177.201 52.7147 177.165 52.0796 177.165 51.3644C177.165 46.5118 179.001 38.6343 182.176 27.0292C184.505 18.5897 183.518 12.8232 178.435 12.8232C178.427 12.8232 178.419 12.8232 178.411 12.8232C178.4 12.8232 178.39 12.8232 178.378 12.8232L178.375 12.8241C177.224 12.8375 176.27 13.2543 175.351 13.9776C174.446 14.6902 173.54 16.2293 172.694 18.2984C171.741 20.6294 165.946 32.2532 156.723 38.2415C156.614 40.5182 157.903 42.7939 160.515 43.0406C162.892 43.266 164.58 42.264 166.753 40.8041C166.59 41.53 166.44 42.2087 166.303 42.8296C166.141 43.5626 166.003 44.195 165.892 44.7054C165.726 45.4652 165.621 45.9542 165.59 46.0896C165.288 47.4746 165.073 48.7902 164.933 50.039C163.632 61.6637 169.02 67.3998 175.33 67.3998C176.385 67.3998 177.43 67.2743 178.467 67.0106C185.419 65.2479 192.112 57.2733 200.034 38.9158C199.914 40.9127 199.901 42.7779 199.988 44.5085C200.51 55.0296 204.671 58.1863 210.551 58.1863C214.997 58.1863 219.161 55.866 221.278 52.9819C222.832 50.9422 223.467 48.6913 223.467 46.9331C223.467 45.5685 223.034 44.4792 222.345 43.926Z" fill="#8C8888"/>
<path d="M510.225 35.0801C510.339 32.8894 511.124 31.0993 512.352 29.7027V27.8418H510.72C507.423 27.8418 504.632 29.1054 503.009 31.9607H502.914V28.156H494.457V51.3589H502.916V41.9921C502.916 38.0165 504.079 34.9851 508.773 34.9851C509.284 34.9886 509.762 35.0179 510.225 35.0801Z" fill="#8C8888"/>
<path d="M574.268 34.9962C574.971 32.9454 576.11 31.119 577.591 29.6534V27.8408H575.963C572.664 27.8408 569.876 29.1045 568.245 31.958H568.154V28.1567H559.691V51.3596H568.154V41.9929C568.154 38.0172 569.321 34.9859 574.014 34.9859L574.268 34.9962Z" fill="#8C8888"/>
<path d="M527.402 34.1266C526.097 33.4481 524.281 32.9959 522.836 32.9959C521.866 32.9959 520.19 33.3998 520.19 34.5788C520.19 36.1636 522.836 36.388 524.006 36.6193C527.949 37.3858 530.932 39.1966 530.932 43.4882C530.932 49.5923 525.213 52.1334 519.677 52.1334C516.281 52.1334 512.941 51.1822 510.055 49.4628L513.122 43.7143C514.84 44.8951 517.723 46.0672 519.815 46.0672C520.885 46.0672 522.465 45.5718 522.465 44.3047C522.465 42.4956 519.815 42.4006 517.162 41.7239C514.515 41.0455 511.869 39.7819 511.869 35.6198C511.869 29.9196 517.162 27.3906 522.379 27.3906C525.075 27.3906 527.773 27.7963 530.231 28.8821L527.402 34.1266Z" fill="#8C8888"/>
<path d="M602.958 51.3583H594.499V48.7776H594.406C592.918 51.0839 589.983 52.1231 587.199 52.1231C580.128 52.1231 575.158 46.378 575.158 39.7284C575.158 33.0857 580.04 27.3838 587.104 27.3838C589.845 27.3838 592.732 28.3781 594.498 30.4117V28.1554H602.955L602.958 51.3583ZM583.898 39.7785C583.898 42.7166 585.901 44.978 589.336 44.978C592.775 44.978 594.769 42.72 594.769 39.7785C594.769 36.9284 592.775 34.5323 589.336 34.5323C585.901 34.534 583.898 36.9284 583.898 39.7785Z" fill="#8C8888"/>
<path d="M558.356 41.1404H540.546C540.546 44.4842 542.364 46.2916 545.849 46.2916C547.662 46.2916 548.961 45.7064 549.894 44.1666H558.031C556.683 49.6406 551.335 52.1282 545.897 52.1282C538 52.1282 532.096 47.7832 532.096 39.7819C532.096 32.0481 537.528 27.3906 545.291 27.3906C553.565 27.3906 558.359 32.3675 558.359 40.279L558.356 41.1404ZM550.498 36.388C550.078 34.1714 547.986 32.7248 545.711 32.7248C543.244 32.7248 541.207 33.9867 540.687 36.388H550.498Z" fill="#8C8888"/>
<path d="M467.55 39.3755C467.541 39.1752 467.528 38.9802 467.512 38.7816V38.7782V38.7747C467.322 36.6221 466.611 34.6075 465.404 32.788C464.866 31.9766 464.249 31.2395 463.561 30.5784C462.554 29.6099 461.389 28.8089 460.075 28.1754C458.099 27.2311 455.915 26.7547 453.584 26.7547C453.357 26.7547 453.118 26.7581 452.878 26.7667C451.242 26.841 449.659 27.1517 448.171 27.6989C446.671 28.241 445.364 28.9574 444.295 29.8171C444.078 29.9897 443.841 30.202 443.588 30.4351L443.405 30.6146L443.154 30.8805H443.156H443.158L443.04 30.9961L442.983 31.0583L442.685 31.3725C442.464 31.621 442.253 31.8696 442.056 32.113L442.055 32.1096L442.048 32.1027C441.639 32.5998 441.261 33.1143 440.983 33.5769C440.794 33.8738 440.61 34.1794 440.434 34.4849L437.994 39.4169L437.998 39.4204L437.87 39.6707L437.601 40.2162C437.066 41.2986 436.493 42.3775 435.852 43.2682C434.424 44.834 432.81 45.6004 430.735 45.6004C430.59 45.6004 430.442 45.5935 430.29 45.5849C429.04 45.5348 427.968 45.2396 427.017 44.6769C426.915 44.6165 426.817 44.5543 426.722 44.4904C425.945 43.9743 425.349 43.3114 424.904 42.4845C424.402 41.5471 424.179 40.5891 424.21 39.574C424.212 39.5464 424.214 39.5222 424.214 39.4998C424.281 37.884 424.897 36.6272 426.138 35.5414C426.44 35.2807 426.756 35.0598 427.086 34.863C427.133 34.8354 427.179 34.8095 427.226 34.7853C428.148 34.283 429.197 34.0326 430.401 34.0326L430.775 34.043C432.686 34.1155 434.16 34.7128 435.336 35.878L439.023 29.2578C438.141 28.6674 437.145 28.1598 436.047 27.7473C436.006 27.7317 435.963 27.7145 435.919 27.7007C435.788 27.654 435.659 27.6057 435.524 27.5626C434.357 27.1724 433.133 26.9325 431.873 26.8237C431.842 26.8185 431.807 26.8151 431.776 26.8116C431.583 26.7995 431.386 26.7754 431.193 26.7667C430.982 26.7581 430.77 26.7547 430.563 26.7529H430.444C428.125 26.7616 425.971 27.2363 424.001 28.1771C421.795 29.2405 420.007 30.789 418.681 32.7845C417.359 34.7801 416.637 36.9949 416.533 39.372C416.525 39.5757 416.52 39.7777 416.52 39.9762C416.518 43.301 417.73 46.2254 420.14 48.6801C422.655 51.2557 425.926 52.6437 429.853 52.8077C430.105 52.818 430.354 52.8249 430.603 52.8249C432.824 52.8249 434.88 52.4296 436.724 51.639C437.185 51.4422 437.632 51.2108 438.089 50.9536C438.338 50.8104 438.573 50.6584 438.806 50.4962L438.978 50.3805L439.268 50.182C439.617 49.9317 439.943 49.6606 440.261 49.3724L440.372 49.2671C440.558 49.0892 440.744 48.9097 440.92 48.725L441.582 47.9775L441.834 47.6616L441.951 47.489L442.068 47.3198C443.051 45.6695 446.248 39.6638 446.248 39.6638V39.6517L446.438 39.2857L446.596 38.9991C447.068 38.1412 447.408 37.5318 447.858 36.8914L447.87 36.8724C448.922 35.3481 450.729 34.2622 452.859 34.0793C456.433 33.772 459.564 36.1197 459.853 39.3237C460.139 42.5277 457.474 45.3743 453.9 45.6833C453.156 45.7472 452.433 45.6971 451.751 45.5469L451.734 45.5538C449.112 45.0083 447.442 43.0956 446.619 42.2411L443.18 48.5645C443.18 48.5645 444.249 49.6417 444.981 50.1803C445.714 50.7171 446.662 51.2454 447.418 51.5734C449.253 52.3571 451.249 52.8266 453.453 52.8266C453.709 52.8266 453.657 52.8266 453.923 52.8163C457.847 52.6523 461.344 51.1487 463.866 48.5731C466.255 46.127 467.552 43.3338 467.564 40.028V39.9296C467.562 39.7466 467.557 39.5619 467.55 39.3755Z" fill="#8C8888"/>
<path d="M480.704 52.1432C478.921 52.1432 477.303 51.936 475.852 51.5217C474.4 51.1074 473.16 50.4532 472.133 49.5555C471.103 48.6578 470.308 47.515 469.749 46.1288C469.19 44.7426 468.91 43.0716 468.91 41.1244V28.1514H477.07V41.0208C477.07 42.4795 477.419 43.536 478.115 44.1954C478.812 44.8566 479.698 45.1863 480.771 45.1863C481.869 45.1863 482.76 44.879 483.447 44.2627C484.131 43.6464 484.476 42.6245 484.476 41.1882V28.1514H492.636V40.9535C492.636 42.9697 492.35 44.6839 491.778 46.0943C491.207 47.5064 490.401 48.6596 489.363 49.5572C488.32 50.4549 487.065 51.1074 485.589 51.5235C484.113 51.936 482.486 52.1432 480.704 52.1432Z" fill="#8C8888"/>
<path d="M844.963 46.4888L850.018 49.8592C848.378 52.2761 844.453 56.4225 837.668 56.4225C829.242 56.4225 822.967 49.9035 822.967 41.6107C822.967 32.7856 829.308 26.7988 836.958 26.7988C844.652 26.7988 848.422 32.9187 849.641 36.2225L850.307 37.9077L830.484 46.1119C831.991 49.0831 834.342 50.5909 837.668 50.5909C840.994 50.5909 843.3 48.9501 844.963 46.4888ZM829.419 41.145L842.657 35.646C841.925 33.8056 839.752 32.4974 837.158 32.4974C833.854 32.4974 829.264 35.4243 829.419 41.145Z" fill="#8C8888"/>
<path d="M813.41 11.6992H819.796V55.0704H813.41V11.6992Z" fill="#8C8888"/>
<path d="M803.345 27.9525H809.509V54.2945C809.509 65.226 803.056 69.7272 795.429 69.7272C788.245 69.7272 783.921 64.8934 782.302 60.9687L787.956 58.6183C788.976 61.0353 791.438 63.8956 795.429 63.8956C800.329 63.8956 803.345 60.8579 803.345 55.1815V53.0528H803.123C801.66 54.8267 798.866 56.4232 795.318 56.4232C787.912 56.4232 781.127 49.9707 781.127 41.6557C781.127 33.2963 787.912 26.7773 795.318 26.7773C798.844 26.7773 801.66 28.3517 803.123 30.0812H803.345V27.9525ZM803.788 41.6557C803.788 36.4228 800.307 32.6089 795.872 32.6089C791.393 32.6089 787.624 36.4228 787.624 41.6557C787.624 46.8221 791.393 50.5694 795.872 50.5694C800.307 50.5916 803.788 46.8221 803.788 41.6557Z" fill="#8C8888"/>
<path d="M746.069 41.5449C746.069 50.0817 739.417 56.3568 731.257 56.3568C723.097 56.3568 716.445 50.0595 716.445 41.5449C716.445 32.9638 723.097 26.7109 731.257 26.7109C739.417 26.7109 746.069 32.9638 746.069 41.5449ZM739.594 41.5449C739.594 36.2233 735.736 32.5647 731.257 32.5647C726.778 32.5647 722.92 36.2233 722.92 41.5449C722.92 46.8222 726.778 50.5252 731.257 50.5252C735.736 50.5252 739.594 46.8222 739.594 41.5449Z" fill="#8C8888"/>
<path d="M778.421 41.6107C778.421 50.1474 771.769 56.4225 763.609 56.4225C755.449 56.4225 748.797 50.1474 748.797 41.6107C748.797 33.0296 755.449 26.7988 763.609 26.7988C771.769 26.7988 778.421 33.0074 778.421 41.6107ZM771.924 41.6107C771.924 36.289 768.066 32.6304 763.587 32.6304C759.108 32.6304 755.249 36.289 755.249 41.6107C755.249 46.8879 759.108 50.5909 763.587 50.5909C768.088 50.5909 771.924 46.8658 771.924 41.6107Z" fill="#8C8888"/>
<path d="M692.099 49.9261C682.809 49.9261 675.536 42.4315 675.536 33.1408C675.536 23.8502 682.809 16.3556 692.099 16.3556C697.111 16.3556 700.769 18.329 703.474 20.8568L707.931 16.3999C704.162 12.7856 699.128 10.0361 692.099 10.0361C679.372 10.0361 668.662 20.4133 668.662 33.1408C668.662 45.8684 679.372 56.2455 692.099 56.2455C698.973 56.2455 704.162 53.9838 708.219 49.7709C712.388 45.6023 713.674 39.7485 713.674 35.0034C713.674 33.5178 713.497 31.9878 713.297 30.857H692.099V37.0212H707.199C706.756 40.8793 705.536 43.518 703.74 45.314C701.567 47.5092 698.131 49.9261 692.099 49.9261Z" fill="#8C8888"/>
<path d="M902.379 79.3623H1112.34V0.713867H902.379" fill="#8C8888"/>
<path d="M902.379 0.713867H1112.34V79.3623H902.379" fill="#8C8888"/>
<path d="M902.379 0.713867H1112.34V79.3623H902.379" fill="#8C8888"/>
<path d="M901.996 0.285156H1112.34V79.362H901.996" fill="#8C8888"/>
<path d="M902.379 0.713867H1113V79.7907H902.379" fill="#8C8888"/>
<path d="M901.996 0.285156H1112.34V79.362H901.996" fill="#8C8888"/>
<path d="M1013.25 39.9347C1011.84 39.9347 1010.82 40.3972 1009.78 40.8681V51.5318C1010.77 51.6286 1011.34 51.6286 1012.28 51.6286C1015.67 51.6286 1016.13 50.0761 1016.13 47.912V42.8176C1016.13 41.2191 1015.6 39.9347 1013.25 39.9347ZM990.73 39.3524C988.378 39.3524 987.843 40.6424 987.843 42.2395V43.1359H993.618V42.2395C993.618 40.6417 993.081 39.3524 990.73 39.3524ZM947.11 50.4529C947.11 51.715 947.706 52.3718 949.024 52.3718C950.438 52.3718 951.274 51.9121 952.306 51.4378V48.9101H949.215C947.752 48.9108 947.11 49.1811 947.11 50.4529ZM1035.15 39.9347C1032.8 39.9347 1031.98 41.2191 1031.98 42.8162V48.6524C1031.98 50.2558 1032.8 51.5416 1035.15 51.5416C1037.5 51.5416 1038.33 50.2544 1038.33 48.6524V42.8162C1038.33 41.2191 1037.5 39.9347 1035.15 39.9347ZM935.562 56.9939H928.637V40.2516H925.174V34.481H928.637V31.0172C928.637 26.3101 930.591 23.5107 936.141 23.5107H940.765V29.2814H937.877C935.715 29.2814 935.572 30.088 935.572 31.5925L935.562 34.4803H940.798L940.185 40.2509H935.562V56.9939ZM959.236 57.0371H953.463L953.215 55.5786C950.578 57.0371 948.225 57.2739 946.673 57.2739C942.439 57.2739 940.186 54.4495 940.186 50.5434C940.186 45.936 942.815 44.2901 947.519 44.2901H952.307V43.2941C952.307 40.9405 952.037 40.2509 948.415 40.2509H942.491L943.071 34.4803H949.544C957.493 34.4803 959.236 36.9898 959.236 43.3407V57.0371ZM978.867 40.6751C975.275 40.0594 974.242 39.9243 972.515 39.9243C969.41 39.9243 968.471 40.609 968.471 43.2411V48.2226C968.471 50.8555 969.41 51.5423 972.515 51.5423C974.242 51.5423 975.275 51.4064 978.867 50.7886V56.4151C975.719 57.1214 973.67 57.306 971.938 57.306C964.5 57.306 961.546 53.4006 961.546 47.7574V43.7147C961.546 38.0687 964.5 34.155 971.938 34.155C973.67 34.155 975.72 34.3424 978.867 35.0479V40.6751ZM1000.54 47.7574H987.842V48.2226C987.842 50.8555 988.781 51.5423 991.885 51.5423C994.676 51.5423 996.379 51.4064 999.964 50.7886V56.4151C996.507 57.1214 994.706 57.306 991.311 57.306C983.873 57.306 980.916 53.4006 980.916 47.7574V43.1352C980.916 38.1997 983.111 34.155 990.731 34.155C998.353 34.155 1000.54 38.1516 1000.54 43.1352L1000.54 47.7574ZM1023.06 47.8632C1023.06 53.317 1021.5 57.2948 1012.05 57.2948C1008.63 57.2948 1006.63 56.9939 1002.86 56.4144V25.243L1009.78 24.0902V34.9929C1011.28 34.4371 1013.22 34.1557 1014.98 34.1557C1021.91 34.1557 1023.06 37.2573 1023.06 42.2381V47.8632H1023.06ZM1045.26 47.9823C1045.26 52.6866 1043.31 57.2503 1035.18 57.2503C1027.03 57.2503 1025.05 52.6866 1025.05 47.9823V43.4403C1025.05 38.7346 1027.03 34.1703 1035.18 34.1703C1043.31 34.1703 1045.26 38.7346 1045.26 43.4403V47.9823ZM1067.44 47.9823C1067.44 52.6866 1065.49 57.2503 1057.36 57.2503C1049.22 57.2503 1047.23 52.6866 1047.23 47.9823V43.4403C1047.23 38.7346 1049.22 34.1703 1057.36 34.1703C1065.49 34.1703 1067.44 38.7346 1067.44 43.4403V47.9823ZM1090.2 56.9939H1082.7L1076.35 46.4131V56.9939H1069.42V25.243L1076.35 24.0902V44.5304L1082.7 34.481H1090.2L1083.27 45.447L1090.2 56.9939ZM1057.33 39.9347C1054.98 39.9347 1054.16 41.2191 1054.16 42.8162V48.6524C1054.16 50.2558 1054.98 51.5416 1057.33 51.5416C1059.68 51.5416 1060.51 50.2544 1060.51 48.6524V42.8162C1060.51 41.2191 1059.68 39.9347 1057.33 39.9347ZM1094.16 53.0461C1095.32 53.0461 1096.25 53.9954 1096.25 55.1809C1096.25 56.3852 1095.32 57.3248 1094.15 57.3248C1092.98 57.3248 1092.03 56.3845 1092.03 55.1809C1092.03 53.9954 1092.98 53.0461 1094.15 53.0461H1094.16ZM1094.15 53.3783C1093.21 53.3783 1092.44 54.1849 1092.44 55.1823C1092.44 56.1971 1093.21 56.9953 1094.16 56.9953C1095.11 57.0051 1095.86 56.1971 1095.86 55.1913C1095.86 54.1863 1095.11 53.3783 1094.16 53.3783H1094.15ZM1093.75 56.4256H1093.37V54.0421C1093.57 54.0135 1093.76 53.9864 1094.04 53.9864C1094.4 53.9864 1094.64 54.0609 1094.78 54.1661C1094.93 54.2712 1095 54.4321 1095 54.6599C1095 54.9726 1094.79 55.1628 1094.54 55.2394V55.2582C1094.75 55.2965 1094.89 55.4839 1094.93 55.8349C1094.99 56.2062 1095.05 56.349 1095.09 56.4256H1094.69C1094.63 56.3503 1094.57 56.1302 1094.53 55.8189C1094.47 55.5138 1094.32 55.3996 1094.01 55.3996H1093.75V56.4256H1093.75ZM1093.75 55.1057H1094.02C1094.34 55.1057 1094.6 54.9914 1094.6 54.6975C1094.6 54.4872 1094.45 54.2789 1094.02 54.2789C1093.9 54.2789 1093.81 54.2893 1093.75 54.2977V55.1057Z" fill="white"/>
<path d="M62.6089 46.0587C57.8294 46.0587 51.848 46.8936 49.8914 47.1873C41.7923 38.7173 39.4881 33.9027 38.9699 32.6191C39.6723 30.8118 42.1162 23.9459 42.4635 15.1277C42.6348 10.7127 41.7035 7.41369 39.6949 5.32248C37.6897 3.23472 35.2628 3.07227 34.5668 3.07227C32.1264 3.07227 28.0326 4.3082 28.0326 12.5842C28.0326 19.7649 31.3756 27.3845 32.2997 29.3533C27.431 43.5504 22.2039 53.269 21.094 55.268C1.52981 62.6448 0 69.7773 0 71.7988C0 75.4314 2.58331 77.6001 6.91012 77.6001C17.4228 77.6001 27.0163 59.9243 28.6026 56.8551C36.069 53.8758 46.0626 52.0305 48.603 51.5902C55.89 58.5418 64.3178 60.3967 67.8174 60.3967C70.4506 60.3967 76.6174 60.3967 76.6174 54.0471C76.6179 48.1506 69.0714 46.0587 62.6089 46.0587ZM62.1022 50.2272C67.7806 50.2272 69.2812 52.1078 69.2812 53.1022C69.2812 53.7262 69.0447 55.762 66.001 55.762C63.2717 55.762 58.5595 54.1823 53.9231 50.7547C55.8567 50.5001 58.7177 50.2272 62.1022 50.2272ZM34.2684 7.11292C34.7861 7.11292 35.127 7.27957 35.4081 7.66981C37.0413 9.93936 35.7244 17.355 34.1216 23.158C32.5744 18.1822 31.4133 10.5472 33.047 7.86119C33.3663 7.33681 33.7313 7.11292 34.2684 7.11292ZM31.5107 51.5308C33.5666 47.3715 35.8708 41.3101 37.1258 37.8815C39.6375 42.0918 43.0155 46.0004 44.9693 48.1196C38.8861 49.4041 34.2835 50.687 31.5107 51.5308ZM4.08379 72.3538C3.94836 72.1931 3.92831 71.8538 4.03037 71.4467C4.24436 70.5935 5.88012 66.3643 17.7105 61.0645C16.0166 63.7367 13.3683 67.5551 10.4591 70.4073C8.4112 72.3271 6.81659 73.3003 5.7194 73.3003C5.32689 73.3003 4.78607 73.1929 4.08379 72.3538Z" fill="#8C8888"/>
</svg>
