<svg width="128" height="129" viewBox="0 0 128 129" fill="none" xmlns="http://www.w3.org/2000/svg">
<path d="M109.197 19.2407C97.1303 7.17404 81.0865 0.52832 64.0213 0.52832C46.9561 0.52832 30.9123 7.17404 18.8452 19.2407C6.77853 31.3078 0.132812 47.3516 0.132812 64.4168C0.132812 81.482 6.77853 97.5258 18.8452 109.593C30.9123 121.66 46.9561 128.305 64.0213 128.305C81.0865 128.305 97.1303 121.66 109.197 109.593C121.264 97.5258 127.91 81.482 127.91 64.4168C127.91 47.3516 121.264 31.3078 109.197 19.2407ZM64.0213 120.402C33.1512 120.402 8.03654 95.287 8.03654 64.4168C8.03654 33.5467 33.1512 8.43205 64.0213 8.43205C94.8914 8.43205 120.006 33.5467 120.006 64.4168C120.006 95.287 94.8914 120.402 64.0213 120.402Z" fill="white"/>
<path d="M47.834 89.2017L90.7449 64.4169L47.834 39.6321V89.2017Z" fill="white"/>
</svg>
