<svg width="102" height="102" viewBox="0 0 102 102" fill="none" xmlns="http://www.w3.org/2000/svg">
<rect x="0.5" y="0.5" width="101" height="101" rx="32.5" stroke="#A2E2F8"/>
<rect x="9" y="9" width="84" height="84" rx="23" fill="#A2E2F8"/>
<path d="M65.4509 36.0492L57.9508 28.549C57.9505 28.5487 57.9501 28.5485 57.9499 28.5481C57.9064 28.5048 57.8609 28.4638 57.8135 28.4248C57.7917 28.407 57.7689 28.3915 57.7466 28.3748C57.7199 28.3549 57.6938 28.3342 57.6661 28.3157C57.6393 28.2978 57.6117 28.2824 57.5842 28.266C57.5591 28.251 57.5346 28.2352 57.5087 28.2214C57.4808 28.2064 57.4521 28.1938 57.4236 28.1803C57.3966 28.1676 57.37 28.1541 57.3424 28.1426C57.3148 28.1312 57.2865 28.1219 57.2583 28.1118C57.2287 28.1012 57.1995 28.0899 57.1693 28.0807C57.1412 28.0722 57.1125 28.066 57.0841 28.0588C57.0533 28.051 57.0228 28.0424 56.9914 28.0362C56.9584 28.0297 56.9252 28.0257 56.8921 28.021C56.8648 28.0171 56.8379 28.0118 56.8101 28.0091C56.687 27.997 56.563 27.997 56.44 28.0091C56.4123 28.0118 56.3854 28.017 56.358 28.021C56.3248 28.0257 56.2915 28.0296 56.2587 28.0362C56.2272 28.0424 56.1968 28.051 56.1659 28.0588C56.1375 28.066 56.1089 28.0722 56.0808 28.0807C56.0505 28.0899 56.0213 28.1012 55.9917 28.1118C55.9636 28.1219 55.9353 28.1312 55.9076 28.1426C55.8799 28.154 55.8535 28.1676 55.8265 28.1803C55.798 28.1938 55.7693 28.2064 55.7413 28.2214C55.7155 28.2352 55.691 28.251 55.6658 28.266C55.6384 28.2824 55.6107 28.2978 55.584 28.3157C55.5562 28.3342 55.5302 28.3549 55.5035 28.3748C55.4812 28.3915 55.4583 28.407 55.4366 28.4248C55.3891 28.4638 55.3435 28.5048 55.3002 28.5481C55.2998 28.5485 55.2995 28.5487 55.2992 28.549L47.7992 36.0491C47.0669 36.7813 47.0669 37.9685 47.7992 38.7008C48.5314 39.433 49.7186 39.433 50.4509 38.7008L54.7501 34.4015V56.1252C54.7501 57.1607 55.5895 58.0002 56.6251 58.0002C57.6606 58.0002 58.5001 57.1607 58.5001 56.1252V34.4016L62.7993 38.7009C63.5315 39.4331 64.7188 39.4331 65.451 38.7009C66.1831 37.9685 66.1831 36.7814 65.4509 36.0492Z" fill="white"/>
<path d="M51.5493 62.2998L47.2501 66.599V44.8755C47.2501 43.8399 46.4106 43.0005 45.3751 43.0005C44.3395 43.0005 43.5001 43.8399 43.5001 44.8755V66.599L39.2009 62.2998C38.4686 61.5676 37.2814 61.5676 36.5492 62.2998C35.8169 63.0321 35.8169 64.2193 36.5492 64.9515L44.0492 72.4516C44.0496 72.4519 44.0499 72.4522 44.0503 72.4525C44.0936 72.4958 44.1392 72.5368 44.1866 72.5758C44.2083 72.5936 44.2313 72.6091 44.2536 72.6259C44.2802 72.6458 44.3063 72.6665 44.334 72.685C44.3607 72.7029 44.3884 72.7183 44.4158 72.7347C44.441 72.7497 44.4655 72.7654 44.4913 72.7792C44.5193 72.7942 44.548 72.8068 44.5766 72.8203C44.6035 72.833 44.63 72.8465 44.6576 72.8579C44.6853 72.8693 44.7136 72.8786 44.7417 72.8887C44.7713 72.8993 44.8005 72.9106 44.8308 72.9198C44.8589 72.9283 44.8875 72.9345 44.9159 72.9417C44.9468 72.9495 44.9773 72.9581 45.0087 72.9643C45.0417 72.9708 45.0749 72.9747 45.1081 72.9795C45.1354 72.9833 45.1624 72.9886 45.1901 72.9913C45.3131 73.0034 45.4371 73.0034 45.5602 72.9913C45.5879 72.9886 45.6148 72.9834 45.6422 72.9795C45.6753 72.9747 45.7086 72.9708 45.7415 72.9642C45.773 72.958 45.8034 72.9494 45.8342 72.9416C45.8627 72.9345 45.8913 72.9282 45.9194 72.9197C45.9496 72.9105 45.9789 72.8992 46.0084 72.8886C46.0365 72.8785 46.0648 72.8692 46.0925 72.8578C46.1201 72.8464 46.1466 72.8329 46.1735 72.8202C46.202 72.8067 46.2309 72.7941 46.2588 72.7791C46.2846 72.7653 46.3091 72.7495 46.3341 72.7346C46.3616 72.7182 46.3893 72.7027 46.4161 72.6848C46.4437 72.6663 46.4698 72.6457 46.4963 72.6259C46.5187 72.6091 46.5417 72.5935 46.5635 72.5757C46.6105 72.5371 46.6557 72.4963 46.6988 72.4533C46.6995 72.4527 46.7002 72.4521 46.7008 72.4515L54.2009 64.9514C54.9331 64.2192 54.9331 63.032 54.2009 62.2997C53.4687 61.5675 52.2816 61.5676 51.5493 62.2998Z" fill="white"/>
</svg>
