<svg width="32" height="44" viewBox="0 0 32 44" fill="none" xmlns="http://www.w3.org/2000/svg">
<path d="M27.0471 4.42558C23.8533 1.37773 19.652 -0.187539 15.2384 0.0179395C6.94894 0.403444 0.113524 7.47462 0.00139844 15.7807C-0.0601606 20.4475 1.91319 24.8973 5.41589 27.9892C5.79226 28.3216 6.08619 28.7283 6.28625 29.1767H14.5886V23.7742C14.0162 23.3014 13.4626 22.8497 12.9416 22.4272C9.05193 19.2737 7.03164 17.5086 7.03164 14.7743C7.03164 12.0748 9.00128 9.95998 11.5159 9.95998C12.8798 9.95998 13.9828 10.5225 14.8881 11.6801L16.0002 13.1029L17.1124 11.6801C18.0176 10.5225 19.1206 9.95998 20.4846 9.95998C22.9993 9.95998 24.9688 12.0749 24.9688 14.7743C24.9688 17.5087 22.9486 19.2738 19.0773 22.4125C18.5453 22.8437 17.9868 23.2992 17.4119 23.7741V29.1766H25.7082C25.9035 28.7339 26.1901 28.3359 26.5561 28.0144C30.0157 24.9753 32 20.5962 32 16.0002C32.0003 11.5854 30.2411 7.47462 27.0471 4.42558Z" fill="white"/>
<path d="M6.58789 32V33.4117C6.58789 35.2655 7.79252 36.8276 9.45419 37.4002C9.60344 38.7909 10.1861 40.113 11.1393 41.1539C12.3847 42.5137 14.1558 43.2941 15.9997 43.2941C17.8434 43.2941 19.6145 42.5137 20.8599 41.1539C21.8131 40.1132 22.3957 38.791 22.545 37.4003C24.2068 36.8277 25.4113 35.2656 25.4113 33.4118V32.0001H6.58789V32Z" fill="white"/>
</svg>
