<svg width="23" height="19" viewBox="0 0 23 19" fill="none" xmlns="http://www.w3.org/2000/svg">
<path fill-rule="evenodd" clip-rule="evenodd" d="M11.2776 0.000488281C15.9408 0.00387063 20.1281 3.27235 22.48 8.745C22.5724 8.95809 22.5724 9.19936 22.48 9.41245C20.1292 14.8862 15.9408 18.1547 11.2776 18.1581H11.2708C6.60771 18.1547 2.42036 14.8862 0.0684927 9.41245C-0.0228309 9.19936 -0.0228309 8.95809 0.0684927 8.745C2.42036 3.27235 6.60884 0.00387063 11.2708 0.000488281H11.2776ZM11.2742 1.69167C7.40031 1.69279 3.86688 4.44716 1.76982 9.07872C3.86688 13.7114 7.39918 16.4658 11.2742 16.4669C15.1493 16.4658 18.6816 13.7114 20.7786 9.07872C18.6816 4.44716 15.1493 1.69279 11.2742 1.69167ZM11.2739 4.66904C13.7058 4.66904 15.6845 6.64772 15.6845 9.07963C15.6845 11.5104 13.7058 13.488 11.2739 13.488C8.84198 13.488 6.86443 11.5104 6.86443 9.07963C6.86443 6.64772 8.84198 4.66904 11.2739 4.66904ZM11.2739 6.36021C9.77438 6.36021 8.55561 7.58012 8.55561 9.07963C8.55561 10.578 9.77438 11.7968 11.2739 11.7968C12.7734 11.7968 13.9933 10.578 13.9933 9.07963C13.9933 7.58012 12.7734 6.36021 11.2739 6.36021Z" fill="#C6C3C3"/>
</svg>
