<svg width="23" height="19" viewBox="0 0 23 19" fill="none" xmlns="http://www.w3.org/2000/svg">
<path fill-rule="evenodd" clip-rule="evenodd" d="M11.2776 0C15.9408 0.00338235 20.1281 3.27186 22.48 8.74451C22.5724 8.9576 22.5724 9.19887 22.48 9.41196C20.1292 14.8857 15.9408 18.1542 11.2776 18.1576H11.2708C6.60771 18.1542 2.42036 14.8857 0.0684927 9.41196C-0.0228309 9.19887 -0.0228309 8.9576 0.0684927 8.74451C2.42036 3.27186 6.60884 0.00338235 11.2708 0H11.2776ZM11.2742 1.69118C7.40031 1.6923 3.86688 4.44667 1.76982 9.07824C3.86688 13.7109 7.39918 16.4653 11.2742 16.4664C15.1493 16.4653 18.6816 13.7109 20.7786 9.07824C18.6816 4.44667 15.1493 1.6923 11.2742 1.69118ZM11.2739 4.66855C13.7058 4.66855 15.6845 6.64723 15.6845 9.07914C15.6845 11.5099 13.7058 13.4875 11.2739 13.4875C8.84198 13.4875 6.86443 11.5099 6.86443 9.07914C6.86443 6.64723 8.84198 4.66855 11.2739 4.66855ZM11.2739 6.35973C9.77438 6.35973 8.55561 7.57963 8.55561 9.07914C8.55561 10.5775 9.77438 11.7963 11.2739 11.7963C12.7734 11.7963 13.9933 10.5775 13.9933 9.07914C13.9933 7.57963 12.7734 6.35973 11.2739 6.35973Z" fill="#C6C3C3"/>
</svg>
