<svg width="34" height="34" viewBox="0 0 34 34" fill="none" xmlns="http://www.w3.org/2000/svg">
<path d="M7.91496 10.938H1.0894C0.786474 10.938 0.541016 11.1836 0.541016 11.4864V33.414C0.541016 33.7169 0.786474 33.9623 1.0894 33.9623H7.91496C8.21789 33.9623 8.46335 33.7169 8.46335 33.414V11.4864C8.46335 11.1836 8.21789 10.938 7.91496 10.938Z" fill="#91E7DE"/>
<path d="M4.50401 0.0371094C2.02048 0.0371094 0 2.05539 0 4.53619C0 7.01808 2.02048 9.03713 4.50401 9.03713C6.98557 9.03713 9.00441 7.01797 9.00441 4.53619C9.00452 2.05539 6.98557 0.0371094 4.50401 0.0371094Z" fill="#91E7DE"/>
<path d="M25.275 10.3931C22.5336 10.3931 20.5071 11.5715 19.278 12.9106V11.4864C19.278 11.1836 19.0325 10.9381 18.7296 10.9381H12.1929C11.89 10.9381 11.6445 11.1836 11.6445 11.4864V33.414C11.6445 33.717 11.89 33.9624 12.1929 33.9624H19.0036C19.3065 33.9624 19.5519 33.717 19.5519 33.414V22.565C19.5519 18.9091 20.545 17.4848 23.0934 17.4848C25.8689 17.4848 26.0895 19.7681 26.0895 22.7531V33.4141C26.0895 33.7171 26.3349 33.9625 26.6379 33.9625H33.451C33.754 33.9625 33.9994 33.7171 33.9994 33.4141V21.3865C33.9994 15.9503 32.9629 10.3931 25.275 10.3931Z" fill="#91E7DE"/>
</svg>
