<svg width="34" height="34" viewBox="0 0 34 34" fill="none" xmlns="http://www.w3.org/2000/svg">
<path d="M7.91496 10.9375H1.0894C0.786474 10.9375 0.541016 11.1831 0.541016 11.4859V33.4135C0.541016 33.7164 0.786474 33.9619 1.0894 33.9619H7.91496C8.21789 33.9619 8.46335 33.7164 8.46335 33.4135V11.4859C8.46335 11.1831 8.21789 10.9375 7.91496 10.9375Z" fill="#91E7DE"/>
<path d="M4.50401 0.0371094C2.02048 0.0371094 0 2.05539 0 4.53619C0 7.01808 2.02048 9.03713 4.50401 9.03713C6.98557 9.03713 9.00441 7.01797 9.00441 4.53619C9.00452 2.05539 6.98557 0.0371094 4.50401 0.0371094Z" fill="#91E7DE"/>
<path d="M25.275 10.3926C22.5336 10.3926 20.5071 11.5711 19.278 12.9101V11.486C19.278 11.1831 19.0325 10.9376 18.7296 10.9376H12.1929C11.89 10.9376 11.6445 11.1831 11.6445 11.486V33.4135C11.6445 33.7165 11.89 33.9619 12.1929 33.9619H19.0036C19.3065 33.9619 19.5519 33.7165 19.5519 33.4135V22.5645C19.5519 18.9086 20.545 17.4843 23.0934 17.4843C25.8689 17.4843 26.0895 19.7676 26.0895 22.7526V33.4136C26.0895 33.7166 26.3349 33.962 26.6379 33.962H33.451C33.754 33.962 33.9994 33.7166 33.9994 33.4136V21.386C33.9994 15.9498 32.9629 10.3926 25.275 10.3926Z" fill="#91E7DE"/>
</svg>
